<?xml version="1.0" encoding="utf-8"?><svg version="1.1" xmlns="http://www.w3.org/2000/svg" xmlns:xlink="http://www.w3.org/1999/xlink" x="0px" y="0px" width="1200px" height="1200px" viewBox="0 0 1200 1200" style="enable-background:new 0 0 1200 1200;" xml:space="preserve"><title>Tutanota free mail logo - free.arinco.org</title><metadata><script type="application/ld+json">{ "@context": "http://schema.org", "@type": "ImageObject", "encodingFormat": "image/svg+xml", "version": "3.0", "contentSize": "2.87 KB", "embedUrl": "http://free.arinco.org/mail/tutanota/", "contentUrl": "http://free.arinco.org/images/mail/mail-tutanota-logo.svg", "inLanguage": "en-US", "dateCreated": "2015-08-10T18:16:55+09:00", "datePublished": "2015-08-14T23:39:53+09:00", "description": "The logo has been used in free.arinco.org", "name": "Tutanota SVG Vector Logo", "keywords": "tutanota ,free ,arinco ,email ,vector ,logo ,svg ,e2ee ,pgp", "isFamilyFriendly": "True", "author": { "@type": "Person", "name": "free.", "url": "https://plus.google.com/111421836269129006522/" }}</script></metadata><style><![CDATA[ .st1{clip-path:url(#base_2_);fill-rule:evenodd;clip-rule:evenodd;fill:url(#tutanota_2_);} #mail-tutanota-link:hover .st1 {fill:url(#tutanota_3_);}]]></style><defs></defs><a id="mail-tutanota-link" xlink:href="http://free.arinco.org/mail/tutanota/"><g><defs><path id="base_1_" d="M0,1200V93.75C0,42.188,42.188,0,93.75,0h1012.5c51.563,0,93.75,42.188,93.75,93.75V1200"/></defs><clipPath id="base_2_"><use xlink:href="#base_1_" style="overflow:visible;"/></clipPath><linearGradient id="tutanota_2_" gradientUnits="userSpaceOnUse" x1="599.9995" y1="9.765625e-004" x2="599.9995" y2="1152.1553"><stop offset="0" style="stop-color:#C1141F"/><stop offset="1" style="stop-color:#801B1F"/></linearGradient><linearGradient id="tutanota_3_" gradientUnits="userSpaceOnUse" x1="599.9995" y1="9.765625e-004" x2="599.9995" y2="1152.1553"><stop offset="0" style="stop-color:#801B1F"/><stop offset="1" style="stop-color:#000"/></linearGradient><path id="tutanota_1_" class="st1" d="M1200,0.001v927.154c-38.548-145.686-129.737-227.965-267.273-277.734 c-99.137-35.872-208.783-58.725-323.438-84.375c-16.299-3.646-35.01-8.345-53.906-14.063c-17.033-5.154-41.389-11.53-42.188-24.609 c-1.296-21.241,42.36-26.054,65.625-29.297c27.145-3.783,61.618-5.453,86.718-7.031c52.101-3.276,132.976-14.313,133.594-55.078 c0.432-28.415-44.001-38.717-67.969-46.875c-1.971,1.914,8.432,4.176,12.891,5.859c14.051,5.305,37.015,14.499,37.5,32.813 c0.697,26.28-44.236,31.891-70.313,35.156c-93.636,11.727-209.626,2.384-277.734,35.156c-14.21,6.838-40.367,23.54-39.844,42.188 c0.673,24.001,47.085,39.7,69.141,49.219c31.94,13.786,58.094,24.183,83.203,35.156c50.865,22.232,116.021,51.89,137.109,99.609 c11.989,27.129,3.415,62.049-8.203,82.031c-29.193,50.216-85.218,86.07-138.281,117.188 c-55.912,32.79-114.758,57.67-172.266,83.203c-121.744,54.058-242.513,101.417-364.367,146.484L0,0.001"/></g></a></svg>